<svg viewBox="0 0 512 512"  xmlns="http://www.w3.org/2000/svg">
   <path d="M197.3 170.7h-160A37.4 37.4 0 010 133.3v-96A37.4 37.4 0 0137.3 0h160a37.4 37.4 0 0137.4 37.3v96a37.4 37.4 0 01-37.4 37.4zM37.3 32c-3 0-5.3 2.4-5.3 5.3v96c0 3 2.4 5.4 5.3 5.4h160c3 0 5.4-2.4 5.4-5.4v-96c0-3-2.4-5.3-5.4-5.3zm0 0M197.3 512h-160A37.4 37.4 0 010 474.7v-224a37.4 37.4 0 0137.3-37.4h160a37.4 37.4 0 0137.4 37.4v224a37.4 37.4 0 01-37.4 37.3zm-160-266.7c-3 0-5.3 2.4-5.3 5.4v224c0 3 2.4 5.3 5.3 5.3h160c3 0 5.4-2.4 5.4-5.3v-224c0-3-2.4-5.4-5.4-5.4zm0 0M474.7 512h-160a37.4 37.4 0 01-37.4-37.3v-96a37.4 37.4 0 0137.4-37.4h160a37.4 37.4 0 0137.3 37.4v96a37.4 37.4 0 01-37.3 37.3zm-160-138.7c-3 0-5.4 2.4-5.4 5.4v96c0 3 2.4 5.3 5.4 5.3h160c3 0 5.3-2.4 5.3-5.3v-96c0-3-2.4-5.4-5.3-5.4zm0 0M474.7 298.7h-160a37.4 37.4 0 01-37.4-37.4v-224A37.4 37.4 0 01314.7 0h160A37.4 37.4 0 01512 37.3v224a37.4 37.4 0 01-37.3 37.4zM314.7 32c-3 0-5.4 2.4-5.4 5.3v224c0 3 2.4 5.4 5.4 5.4h160c3 0 5.3-2.4 5.3-5.4v-224c0-3-2.4-5.3-5.3-5.3zm0 0" /></svg>