 <svg viewBox="0 1 511 512"  xmlns="http://www.w3.org/2000/svg">
   <path d="M498.7 222.7L289.8 13.8a46.8 46.8 0 00-66.7 0L14.4 222.6l-.2.2A47.2 47.2 0 0047 303h8.3v153.7a55.2 55.2 0 0055.2 55.2h81.7a15 15 0 0015-15V376.5a25.2 25.2 0 0125.2-25.2h48.2a25.2 25.2 0 0125.1 25.2V497a15 15 0 0015 15h81.8a55.2 55.2 0 0055.1-55.2V303.1h7.7a47.2 47.2 0 0033.4-80.4zm-21.2 45.4a17 17 0 01-12.2 5h-22.7a15 15 0 00-15 15v168.7a25.2 25.2 0 01-25.1 25.2h-66.8V376.5a55.2 55.2 0 00-55.1-55.2h-48.2a55.2 55.2 0 00-55.2 55.2V482h-66.7a25.2 25.2 0 01-25.2-25.2V288.1a15 15 0 00-15-15h-23A17.2 17.2 0 0135.5 244L244.4 35a17 17 0 0124.2 0l208.8 208.8v.1a17.2 17.2 0 010 24.2zm0 0" /></svg>
 